# xmcd
#
# Track frame offsets:
#	150
#	11470
#	26968
#	37180
#	51700
#	66253
#	81908
#	94620
#	112433
#	124868
#	139640
#	151403
#	165820
#	179460
#	194838
#	209350
#	222108
#	235725
#
# Disc length: 3321 seconds
#
# Revision: 0
# Processed by: cddbd v1.5.2PL0 Copyright (c) Steve Scherf et al.
# Submitted via: EasyCDDAExtractor 16.0.6.1
#
DISCID=0d0cf712
DTITLE=Γκολές Μπάμπης - Το ελληνικό τραγ. 643-Ρεμπέτικα και καντάδες-Μπ. Γκολέ
DTITLE=ς
DYEAR=1993
DGENRE=Ποικίλη
TTITLE0=Σίσκε μπαμ [Carrol David-Stone George]
TTITLE1=Μισιρλού [Ν. Ρουμπάνης-Leets-Pina Joseph-Russell S.-Wise Fr.]
TTITLE2=Ούζο [Σπ. Μωραΐτης]
TTITLE3=Τζεμιλέ [Μαν. Χιώτης]
TTITLE4=Τι θα γίνω εγώ χωρίς εσένα [Μ. Πορτοκάλη-Α. Διαμαντίδη-Κοφινιώτης]
TTITLE5=Δε μού λέτε [παραδοσιακό]
TTITLE6=Πριγκηπέσσα [Παν. Τούντα]
TTITLE7=Γιαουρτάς [Γ. Κωνσταντινίδης-Αντ. Πλωμαρίτης]
TTITLE8=Τρελλή μου παξιμαδοκλέφτρα [Γ. Καρρά-Γ. Λαμπριανίδη]
TTITLE9=Σε γλέντια [Κωνστ. Σκαρβέλης]
TTITLE10=Δεν σε θέλω πια [Μπ. Γκολές]
TTITLE11=Μάγισσες [Γ. Τατασσόπουλος-Μ. Ρούτσος]
TTITLE12=Μαγκαλάκι [Μπ. Γκολές]
TTITLE13=Μιά κούκλα μέσ' στην Φρεατίδα [Στ. Χρυσίνης]
TTITLE14=Οι σφουγγαράδες [Γ. Μπάτης]
TTITLE15=Στου Λινάρδου την ταβέρνα [Παν. Τούντα]
TTITLE16=Στα ξωτικά νησιά [Μ. Γκολές-Μ. Τσέρτος]
TTITLE17=Τσιγγάνα [Αλέξ. Τσαβάλας-Νικ. Φατσέας]
EXTD=
EXTT0=
EXTT1=
EXTT2=
EXTT3=
EXTT4=
EXTT5=
EXTT6=
EXTT7=
EXTT8=
EXTT9=
EXTT10=
EXTT11=
EXTT12=
EXTT13=
EXTT14=
EXTT15=
EXTT16=
EXTT17=
PLAYORDER=
